<?xml version="1.0" encoding="UTF-8" standalone="no"?>
<!-- Created with Inkscape (http://www.inkscape.org/) -->
<!DOCTYPE svg PUBLIC "-//W3C//DTD SVG 1.1//EN" "http://www.w3.org/Graphics/SVG/1.1/DTD/svg11.dtd">
<svg
   xmlns:svg="http://www.w3.org/2000/svg"
   xmlns="http://www.w3.org/2000/svg"
   version="1.0"
   width="360"
   height="360"
   id="svg4598">
  <defs
     id="defs4600" />
  <g
     id="layer1">
    <g
       id="g8959">
      <path
         d="m 62.09375,15.65625 c 0.290937,6.850156 0.281249,11.030937 0.28125,18.5625 l 0,99.0625 c 0,13.45641 0.160158,28.16876 2.375,42.34375 2.205,14.18484 6.44781,27.78329 14.5,39.09375 10.365469,14.49985 23.76703,25.32594 39.09375,33.96875 15.30703,8.63297 32.54672,15.08515 50.53125,20.84375 l 0.0312,0 c 3.8314,1.39562 7.195,3.04749 11.0625,4.0625 4.60687,-1.33547 7.65593,-2.67999 11.46875,-4.0625 l 0.0312,0 c 17.80735,-5.7586 34.96438,-12.21078 50.28125,-20.84375 15.30922,-8.63844 28.80328,-19.43875 39.34375,-33.9375 7.88484,-11.31047 12.02185,-24.94015 14.1875,-39.125 2.17547,-14.175 2.34375,-28.88734 2.34375,-42.34375 l 0,-99.0625 c 0,-6.86 0.0238,-11.907031 0.3125,-18.5625 C 291.84641,15.7 285.85126,16 278.34375,16 L 82,16 C 74.144687,16 68.445157,15.698906 62.09375,15.65625 z m 186.84375,38.875 c 1.83832,3.152462 3.85961,5.888228 6.09375,8.6875 0.75335,0.945908 1.51281,1.86968 2.3125,2.84375 1.22062,-0.177187 2.8017,-0.270859 4.46875,-0.3125 1.66705,-0.04164 3.42007,-0.03125 5,-0.03125 l 0,130.90625 -46.21875,0 c -4.03703,0 -8.33828,0.15625 -12.5,0.15625 -3.25938,0 -6.44303,-0.0968 -9.3125,-0.40625 -1.14693,-0.12055 -2.24352,-0.27038 -3.28125,-0.46875 -0.51906,-0.0999 -1.01342,-0.22193 -1.5,-0.34375 0.6989,1.22555 1.14348,2.35353 1.40625,3.40625 0.002,0.009 -0.002,0.022 0,0.0312 0.25693,1.04093 0.34375,2.00733 0.34375,2.875 0,0.41528 -0.0379,0.81212 -0.0937,1.1875 -0.11165,0.75061 -0.30956,1.42933 -0.625,2.03125 -1.26189,2.40923 -4.04832,3.68342 -7.53125,4.3125 -0.87073,0.15727 -1.80545,0.26055 -2.75,0.34375 -1.41682,0.12481 -2.89646,0.1875 -4.40625,0.1875 -1.575,0 -3.00171,-0.0247 -4.3125,-0.0937 -1.96619,-0.10364 -3.66793,-0.28872 -5.09375,-0.5625 -3.78627,-0.72703 -5.78108,-2.09613 -6.59375,-4.25 -0.003,-0.009 0.003,-0.0223 0,-0.0312 -0.19826,-0.53362 -0.34283,-1.11671 -0.40625,-1.75 -9.5e-4,-0.01 9.2e-4,-0.0215 0,-0.0312 -0.0312,-0.32272 -0.0312,-0.65055 -0.0312,-1 0,-0.51633 0.0142,-1.04182 0.0625,-1.5625 9.3e-4,-0.01 -9.5e-4,-0.0213 0,-0.0312 0.0503,-0.53128 0.13943,-1.04657 0.25,-1.59375 0.21902,-1.09389 0.57203,-2.24321 1.09375,-3.46875 -0.69453,0.28629 -1.46328,0.52738 -2.28125,0.71875 -0.40805,0.0948 -0.8474,0.1762 -1.28125,0.25 -0.8612,0.14715 -1.77486,0.26646 -2.71875,0.34375 -0.47623,0.038 -0.97593,0.0705 -1.46875,0.0937 -0.9875,0.0482 -1.99766,0.0625 -3.03125,0.0625 -1.17852,0 -2.38619,-0.0244 -3.59375,-0.0625 -2.37069,-0.0731 -4.7305,-0.20643 -7,-0.28125 -0.0409,-0.001 -0.0842,0.001 -0.125,0 -0.0107,-3.4e-4 -0.0206,3.4e-4 -0.0312,0 -1.15383,-0.0381 -2.27269,-0.0625 -3.34375,-0.0625 l -47.25,0 0,-92.03125 c 0,-1.54175 0.02702,-3.11022 0.0625,-4.71875 8.97e-4,-0.04118 -9.14e-4,-0.08379 0,-0.125 0.106606,-4.747824 0.338751,-9.748569 0.4375,-14.6875 0.03327,-1.664077 0.03428,-3.326582 0.03125,-4.96875 -0.0045,-2.463251 -0.05108,-4.866608 -0.1875,-7.21875 -0.04547,-0.784047 -0.09166,-1.577543 -0.15625,-2.34375 -0.129178,-1.532414 -0.312226,-3.02418 -0.53125,-4.46875 0.787499,0.08859 1.585535,0.132168 2.40625,0.15625 1.641431,0.04816 3.324858,0.01434 4.96875,0.0625 0.82118,0.02215 1.64754,0.06766 2.4375,0.15625 1.39781,-1.747265 2.88098,-3.6875 4.28125,-5.65625 1.05021,-1.476562 2.05791,-2.967167 2.9375,-4.4375 0.29348,-0.490543 0.58043,-0.987637 0.84375,-1.46875 0.78627,0.481113 1.58368,0.949538 2.40625,1.375 1.23386,0.638193 2.50893,1.209378 3.84375,1.71875 1.77103,0.675834 3.66011,1.247306 5.65625,1.6875 0.01,0.0022 0.0214,-0.0022 0.0312,0 1.00361,0.220586 2.02299,0.403336 3.09375,0.5625 1.60614,0.238746 3.286,0.403059 5.0625,0.5 1.18433,0.06463 2.41889,0.09375 3.6875,0.09375 0.69081,0 1.4782,-0.0037 2.3125,-0.03125 2.54107,-0.0864 5.68906,-0.27126 8.9375,-0.46875 2.16691,-0.128906 4.39173,-0.27832 6.53125,-0.375 1.06928,-0.04937 2.11371,-0.0962 3.125,-0.125 1.01157,-0.0282 1.98709,-0.03125 2.90625,-0.03125 7.70151,10e-7 14.23818,1.482119 17.90625,7.1875 0.50132,0.778523 0.95337,1.651545 1.34375,2.59375 0.26025,0.628137 0.47977,1.294002 0.6875,2 0.3116,1.058997 0.56378,2.191812 0.75,3.4375 0.12415,0.830458 0.21603,1.706455 0.28125,2.625 0.0766,-0.481421 0.16115,-0.949834 0.25,-1.40625 0.26654,-1.369247 0.59547,-2.625482 0.96875,-3.78125 0.24885,-0.770512 0.51816,-1.505442 0.8125,-2.1875 0.44151,-1.023087 0.92927,-1.942724 1.46875,-2.78125 0.17983,-0.279509 0.37218,-0.552213 0.5625,-0.8125 0.38064,-0.520574 0.76604,-0.989956 1.1875,-1.4375 4.21457,-4.475441 10.43682,-5.4375 17.875,-5.4375 0.79746,0 1.58709,0.01141 2.40625,0.03125 2.42634,0.0564 4.9382,0.183594 7.53125,0.3125 1.72819,0.08859 3.46136,0.183555 5.25,0.25 1.79926,0.06509 3.61958,0.09375 5.46875,0.09375 2.56141,0 4.82419,-0.0954 6.84375,-0.25 0.72982,-0.0565 1.45354,-0.112202 2.125,-0.1875 0.63378,-0.07071 1.22526,-0.132018 1.8125,-0.21875 1.17447,-0.173463 2.26004,-0.391461 3.28125,-0.625 4.59543,-1.050926 7.87562,-2.685039 11.8125,-4.65625 z m 26.28125,9.09375 c 0.0747,0 0.13298,0.02246 0.21875,0.0625 0.22037,0.09201 0.45225,0.299316 0.75,0.59375 0.39883,0.394058 0.85931,0.91209 1.40625,1.4375 0.68445,0.659967 1.4983,1.316571 2.4375,1.71875 0.55866,0.239227 1.15727,0.375 1.8125,0.375 0.43804,0 0.86445,-0.05834 1.3125,-0.1875 1.34415,-0.387488 2.79406,-1.364961 4.625,-2.9375 -0.13104,0.634307 -0.24221,1.319648 -0.34375,2.0625 -0.19577,1.432518 -0.3474,3.04257 -0.46875,4.78125 -0.005,0.06472 0.004,0.122445 0,0.1875 -7.4e-4,0.01072 7.3e-4,0.02052 0,0.03125 -0.003,0.05024 0.003,0.105821 0,0.15625 -0.17921,2.671052 -0.31833,5.610759 -0.46875,8.59375 -0.10262,2.033156 -0.22174,4.092681 -0.375,6.09375 -0.15319,2.001665 -0.33801,3.955177 -0.59375,5.78125 -0.31976,2.281893 -0.74127,4.369599 -1.3125,6.125 -0.45693,1.404728 -1.01122,2.59383 -1.6875,3.5 -0.50723,0.67947 -1.09385,1.20271 -1.75,1.53125 -0.25726,0.0969 -0.54862,0.18505 -0.84375,0.25 -0.46712,0.10281 -0.96086,0.15462 -1.5,0.1875 -0.29326,0.0179 -0.59808,0.0312 -0.90625,0.0312 -0.66473,0 -1.3618,-0.0365 -2.0625,-0.0937 -2.1021,-0.17186 -4.26144,-0.53746 -5.875,-0.71875 10e-6,-0.34453 -0.34375,-1.76907 -0.34375,-2.8125 l 0,-5.59375 0,-2.46875 c 0.82907,0.146564 1.56079,0.21875 2.1875,0.21875 1.67514,10e-7 2.68678,-0.529463 3.3125,-1.5 0.007,-0.01132 0.0242,-0.0198 0.0312,-0.03125 0.26305,-0.419015 0.44488,-0.91834 0.59375,-1.5 0.002,-0.0091 -0.002,-0.0221 0,-0.03125 0.29962,-1.188098 0.41682,-2.692031 0.53125,-4.5 0.25893,-5.26021 -0.083,-10.696094 -0.5625,-15.75 -0.15842,-1.683281 -0.32527,-3.30246 -0.5,-4.875 0,-0.177189 0.0131,-0.36461 0.0625,-0.5 0.0494,-0.13539 0.13531,-0.21875 0.3125,-0.21875 z M 84.4375,66.0625 c 0,0.701367 -0.0293,1.608386 -0.09375,2.6875 -7.46e-4,0.01233 7.52e-4,0.01887 0,0.03125 -0.06427,1.072605 -0.164794,2.300495 -0.25,3.625 -0.131045,2.001665 -0.255168,4.22847 -0.3125,6.46875 -0.0188,0.747072 -0.03125,1.506797 -0.03125,2.25 0,5.211035 0.543458,10.124617 1.84375,11.75 0.0048,0.0061 -0.0048,0.02521 0,0.03125 0.181467,0.222156 0.381973,0.382604 0.59375,0.46875 0.08859,0.04307 0.183783,0.09205 0.3125,0.125 0.01009,0.0027 0.02093,-0.0026 0.03125,0 0.01838,0.0045 0.04342,-0.0043 0.0625,0 0.357779,0.08138 0.835552,0.156987 1.375,0.1875 0.04506,0.0026 0.07911,-0.0024 0.125,0 0.826291,0.04139 1.790342,0.03125 2.65625,0.03125 -0.177189,0.177188 -0.169297,0.457207 -0.125,0.8125 0.02215,0.175342 0.03481,0.343323 0.0625,0.5625 0.02969,0.230058 0.0625,0.472973 0.0625,0.75 -0.05907,0.0098 -0.128438,0.02141 -0.1875,0.03125 l 0,5.21875 c 0.05906,-0.007 0.128438,-0.0247 0.1875,-0.0312 -0.354378,0.69891 -0.34375,2.46797 -0.34375,2.8125 -0.531563,0.0673 -1.109727,0.149 -1.6875,0.25 -1.731802,0.30064 -3.663975,0.6875 -5.625,0.6875 -0.827967,0 -1.663281,-0.0514 -2.5,-0.21875 -0.537828,-0.10769 -1.038347,-0.31777 -1.5,-0.59375 -0.007,-0.004 -0.02431,0.004 -0.03125,0 C 76.248177,102.29655 74.815101,97.635357 74,92.03125 c -0.269768,-1.854749 -0.468609,-3.828196 -0.625,-5.8125 -0.393077,-4.987412 -0.521527,-10.149767 -0.78125,-14.3125 -0.103889,-1.665093 -0.230293,-3.167656 -0.40625,-4.4375 2.106564,1.053282 4.570938,2.46875 5.96875,2.46875 0.349453,0 0.793242,-0.154619 1.3125,-0.40625 0.25875,-0.127039 0.529976,-0.267781 0.8125,-0.4375 0.295277,-0.173947 0.566686,-0.356957 0.875,-0.5625 1.176562,-0.794023 2.405157,-1.769844 3.28125,-2.46875 z m 0.34375,70.03125 c -0.258398,2.09672 -0.693532,6.7355 -0.90625,11 -0.06976,1.42056 -0.125,2.8057 -0.125,4.03125 0,3.50436 0.352968,8.74859 1.40625,10.15625 0.08723,0.13043 0.185708,0.22359 0.3125,0.3125 0.126792,0.0889 0.275645,0.16542 0.4375,0.21875 0.161855,0.0533 0.338833,0.10131 0.53125,0.125 0.20271,0.0274 0.394957,0.0312 0.625,0.0312 0.874999,-1e-5 1.946719,-0.16656 3,-0.34375 l 0.6875,2.4375 c -0.06453,0.0241 -0.121875,0.0708 -0.1875,0.0937 l -0.875,5.875 0.71875,3.5 c -2.206094,0.16953 -4.089531,0.25 -5.6875,0.25 -1.888261,0 -3.372685,-0.12094 -4.5625,-0.375 -0.395154,-0.0825 -0.731743,-0.16999 -1.0625,-0.28125 -0.99145,-0.33576 -1.699896,-0.80258 -2.21875,-1.40625 -0.179119,-0.20563 -0.332736,-0.4178 -0.46875,-0.65625 -0.149341,-0.23451 -0.300814,-0.53957 -0.4375,-0.90625 -0.003,-0.008 0.003,-0.0231 0,-0.0312 -0.277303,-0.75214 -0.552274,-1.77195 -0.78125,-2.96875 -0.0018,-0.009 0.0018,-0.0219 0,-0.0312 -0.575106,-3.01973 -0.984333,-7.22983 -1.3125,-11.5625 -7.81e-4,-0.0104 7.8e-4,-0.0209 0,-0.0312 -0.525547,-6.95014 -0.796484,-14.19375 -0.96875,-17.34375 0.217793,0.13166 0.414302,0.27937 0.625,0.4375 1.059988,0.79331 2.049495,1.83745 3.4375,2.375 0.0087,0.003 0.02249,-0.003 0.03125,0 0.267639,0.10196 0.544739,0.19241 0.84375,0.25 0.01018,0.002 0.02103,-0.002 0.03125,0 0.300751,0.0561 0.630122,0.0937 0.96875,0.0937 0.328535,0 0.6946,-0.1459 1.0625,-0.375 0.239672,-0.14956 0.468837,-0.34461 0.71875,-0.5625 0.138934,-0.12021 0.265294,-0.2391 0.40625,-0.375 0.254214,-0.24509 0.524399,-0.50312 0.78125,-0.78125 0.0052,-0.006 -0.0052,-0.0256 0,-0.0312 0.524179,-0.56848 1.059853,-1.16135 1.5625,-1.71875 0.257188,-0.28579 0.506852,-0.53753 0.75,-0.78125 0.23134,-0.23189 0.442677,-0.45462 0.65625,-0.625 z M 274.5,138.53125 c 0.34946,0.35191 0.7657,0.84808 1.21875,1.40625 0.6806,0.83818 1.45751,1.8117 2.21875,2.5625 0.37997,0.37482 0.72804,0.67746 1.09375,0.90625 0.007,0.004 0.0242,-0.004 0.0312,0 0.23588,0.14526 0.46564,0.28855 0.6875,0.34375 0.1235,0.0328 0.22602,0.0312 0.34375,0.0312 1.95793,0 3.11195,-0.83087 4.125,-1.78125 0.20738,-0.19672 0.4231,-0.39155 0.625,-0.59375 0.38829,-0.38886 0.78646,-0.78014 1.21875,-1.125 -0.0886,1.575 -0.19207,4.20482 -0.3125,7.34375 -5.1e-4,0.0133 5.1e-4,0.018 0,0.0312 -0.18153,4.70808 -0.43561,10.50189 -0.875,15.46875 -0.43939,4.96686 -1.04959,9.09211 -1.96875,10.40625 -0.16188,0.22641 -0.33169,0.42316 -0.53125,0.625 -0.20428,0.20812 -0.40794,0.41294 -0.65625,0.59375 -0.006,0.005 -0.025,-0.005 -0.0312,0 -0.47825,0.34493 -1.05614,0.63623 -1.71875,0.875 -0.67163,0.2435 -1.45178,0.43648 -2.34375,0.5625 -0.89197,0.12602 -1.88801,0.1875 -3.03125,0.1875 -1.61546,0 -3.49562,-0.13391 -5.6875,-0.40625 l 0.6875,-3.125 -1.03125,-5.96875 0.6875,-2.09375 c 0.70438,0.11812 1.41281,0.1875 2.0625,0.1875 0.31301,0 0.62367,-0.0216 0.90625,-0.0625 0.29119,-0.044 0.56675,-0.12106 0.8125,-0.21875 0.11402,-0.0454 0.24156,-0.0978 0.34375,-0.15625 0.1091,-0.0641 0.21879,-0.13818 0.3125,-0.21875 0.0884,-0.0761 0.17668,-0.18941 0.25,-0.28125 0.0767,-0.0983 0.16064,-0.19533 0.21875,-0.3125 0.0658,-0.0874 0.12706,-0.19882 0.1875,-0.3125 0.18115,-0.34089 0.33344,-0.77529 0.46875,-1.3125 0.18121,-0.71697 0.32755,-1.58964 0.4375,-2.53125 0.21779,-1.88139 0.31249,-4.07555 0.3125,-6 0,-1.21398 -0.0533,-2.59189 -0.125,-4 -5.2e-4,-0.0103 5.2e-4,-0.0209 0,-0.0312 -0.0722,-1.40902 -0.17094,-2.86143 -0.28125,-4.25 -8.6e-4,-0.0111 8.7e-4,-0.0201 0,-0.0312 -0.22256,-2.79559 -0.48398,-5.31601 -0.65625,-6.71875 z"
         id="path473"
         style="fill:#003365;fill-opacity:1;fill-rule:nonzero;stroke:none" />
      <path
         d="m 302.17906,11.25 c -0.36314,7.53509 -0.36314,12.911533 -0.36314,20.446622 l 0,101.496748 c 0,27.61858 -0.71618,60.61359 -17.20865,84.28809 -21.87901,30.12019 -55.95333,44.82724 -92.53938,56.65944 -3.94407,1.43237 -7.17194,2.87484 -12.19535,4.30721 -4.29711,-1.07932 -7.88813,-2.87484 -11.8322,-4.30721 C 131.10125,262.3087 97.02691,247.60165 75.511052,217.48146 58.65545,193.80696 57.939262,160.81195 57.939262,133.19337 l 0,-101.496748 c 0,-8.251275 0,-12.558483 -0.363136,-20.446622 7.171952,0 13.274669,0.363136 21.878996,0.363136 l 201.208068,0 c 8.24119,0 14.69695,-0.363136 21.51587,-0.363136"
         id="path369"
         style="fill:#003365;fill-opacity:1;fill-rule:nonzero;stroke:none" />
      <path
         d="m 179.99508,352.02445 c -53.89453,0 -93.801094,-9.79453 -138.944531,-29.39344 4.902187,-9.80437 9.095625,-36.40218 9.095625,-50.05547 32.553281,19.95328 82.254376,30.8011 129.848906,30.8011 48.30328,0 97.65984,-10.84782 130.20328,-30.8011 0,13.65329 4.20328,40.2511 9.09563,50.05547 -45.14344,19.59891 -85.04016,29.39344 -139.29891,29.39344 M 47.704924,319.82554 c 38.489062,17.85657 81.899996,27.29672 132.644536,27.29672 50.75437,-0.34453 93.80109,-9.44015 132.29999,-27.29672 -2.16343,-5.56172 -6.50671,-25.30828 -6.53296,-36.1189 -0.003,-1.435 0.0689,-2.71141 0.23296,-3.77781 -32.54343,18.89999 -83.99671,28.69453 -126.35437,28.69453 -42.34781,0 -93.446719,-9.79454 -125.990156,-28.69453 0.164062,1.0664 0.240625,2.34281 0.245,3.77781 0.03281,10.81062 -4.0775,30.55718 -6.545,36.1189 m 134.751086,18.54563 -3.50438,0 c -2.45109,-6.29016 -5.60109,-14.34234 -8.75109,-22.05 l 5.24672,0.35437 c 1.40766,4.90219 3.84891,11.20219 5.60109,16.10438 2.09672,-4.20328 4.54782,-10.50328 5.6011,-15.75 l 4.90219,-0.35438 c -3.15001,6.65438 -6.30001,13.99782 -9.09563,21.69563 m 12.94454,-0.34453 c 0,-0.10938 0,-0.21984 0,-0.33031 0,-0.11047 0,-0.22203 0,-0.3336 -0.001,-6.94312 -0.0219,-16.2925 -0.69891,-21.04156 3.49454,0 9.09563,-0.68906 12.94453,-1.04344 l 1.75219,4.20329 -0.6989,0.34453 c -2.79563,-1.75219 -7.35328,-1.04344 -9.09563,-1.39782 0,2.4511 -0.35437,3.84891 -0.35437,6.64453 l 7.35328,-0.68906 0.34453,3.49453 c -1.39781,-0.35437 -4.90219,-0.35437 -7.34344,-0.35437 0,2.45109 0.34453,5.25656 0.69891,7.70766 3.49453,-0.35438 8.05219,-1.40766 10.49344,-2.80547 l 0.70875,0.35437 -1.40766,4.54781 c -5.24672,0.35438 -8.39672,0 -14.69672,0.69891 m -41.64891,-0.34453 -5.25656,-0.35437 c 1.40765,-6.65438 2.10656,-12.25547 2.10656,-19.25438 -0.75141,-0.0733 -1.42078,-0.11594 -2.03547,-0.11594 -2.25094,0 -3.7439,0.56766 -5.66234,2.2225 l -0.35438,-0.35437 c 0.35438,-1.04344 1.75219,-4.19344 2.09672,-5.24672 5.60109,1.05328 11.20219,1.74234 17.14781,1.74234 l 1.05329,5.25657 -0.69891,0.34453 c -1.05328,-1.39782 -4.20328,-3.49453 -6.99891,-3.84891 -0.30734,4.05891 -1.45687,11.71734 -1.45468,17.55141 0,0.7175 0.0186,1.40547 0.0569,2.05734 m 62.30109,-0.70875 c 0,-6.3 -1.40766,-15.05109 -2.09672,-22.05 3.49453,-0.34453 5.94563,-1.39781 9.09563,-1.39781 5.24671,0 6.9989,2.79562 6.9989,4.90219 0,3.49453 -1.05328,4.54781 -3.15,6.29999 3.15,3.84891 5.94563,6.30001 10.50328,9.09563 l 0,0.69891 c -0.72078,0.0667 -1.39672,0.0984 -2.03656,0.0984 -6.19937,0 -8.79375,-3.06359 -11.97109,-8.14078 l -3.84891,0.34453 c 0.35438,3.50438 0.35438,3.84891 1.40766,9.45 l -4.90219,0.69891 m 2.44125,-20.65219 0.70875,8.06203 c 3.84891,-0.35437 6.3,-1.40765 6.3,-4.55765 0,-1.75219 -1.05328,-3.50438 -4.20328,-3.50438 l -2.80547,0 m -79.79343,19.25438 c -5.24672,-0.69891 -8.40656,-1.39781 -14.69672,-2.09672 1.39781,-6.9989 3.49453,-17.15765 3.84891,-21.35109 3.49453,0.6989 8.04234,1.39781 11.89125,2.09672 l 0.70875,4.90218 -0.70875,0 c -1.04344,-2.09671 -6.29016,-3.49453 -8.04235,-3.8489 -0.6989,2.09672 -1.05328,4.20328 -1.40765,6.9989 l 7.00875,0.35438 -0.35438,3.84891 c -1.39781,-0.70875 -4.54781,-1.40766 -6.9989,-1.75219 -0.34454,2.45109 -0.69891,4.54781 -1.05329,6.9989 1.74672,0.1761 4.01297,0.3511 6.15126,0.3511 2.15249,0 4.17593,-0.17719 5.40531,-0.70547 l 0.34453,0.35437 -2.09672,3.84891 m 101.4989,-2.09672 c -1.04344,-6.65437 -2.45109,-15.05109 -4.19344,-22.05 l 4.89235,-1.05328 c 0.35437,5.94562 2.45109,16.44891 4.20328,22.05 l -4.90219,1.05328 m -128.45109,-2.4511 -4.90219,-1.05328 c -0.34453,-2.09672 -2.09672,-7.34344 -2.79562,-9.79453 l -7.353284,6.9989 -3.848906,-1.40765 c 3.15,-2.44125 6.644531,-5.59125 9.80438,-8.04235 -1.75219,-5.60109 -2.4511,-8.05218 -3.848911,-11.54671 l 5.591251,1.74234 c 0.35437,2.10656 1.40765,5.60109 2.10656,8.05219 l 6.99891,-6.3 3.49453,0.6989 c -2.79563,2.09672 -6.64453,5.6011 -9.44016,8.05219 2.09672,6.64453 3.15,9.09563 4.19344,12.6 m 144.9,-1.39781 c -1.39781,-6.65437 -2.45109,-11.90109 -4.54781,-18.9 -3.49453,0.69891 -4.54781,2.09672 -6.3,4.54781 l -0.69891,0 c 0.34453,-2.45109 0.34453,-4.54781 0.69891,-5.60109 5.24672,-0.69891 11.20219,-2.09672 16.4489,-3.84891 0.69891,1.39782 1.75219,3.15 2.80547,4.54782 l -0.70875,0.6989 c -1.20531,-0.60265 -3.96922,-1.4689 -6.50672,-1.4689 -0.40468,0 -0.805,0.0219 -1.19109,0.0711 1.05328,4.90219 2.45109,12.95437 4.55766,18.55547 l -4.55766,1.39781 m 10.50328,-2.80547 c 1.39781,-8.04234 2.45109,-14.69672 3.15,-23.80219 l 3.84891,-1.04343 c 4.20328,5.60109 9.45,12.94453 13.64343,17.84671 l -4.19343,1.75219 c -1.75219,-3.15 -4.19344,-6.3 -4.19344,-6.3 0,0 -5.60109,1.75219 -7.70766,2.4511 -0.34453,2.45109 -0.6989,5.60109 -0.6989,7.69781 l -3.84891,1.39781 m 4.90219,-12.24563 5.60109,-1.75218 -4.90219,-5.95547 -0.6989,7.70765 m -188.655469,9.09563 c -2.795625,0 -9.095625,-1.75219 -9.095625,-6.99891 0,-4.90218 3.494531,-12.24562 4.547812,-16.80328 l 4.547813,1.75219 c -1.053281,2.80547 -4.547813,12.95437 -4.547813,15.05109 0,3.50438 3.15,4.20329 4.902188,4.20329 2.795625,0 4.547812,-4.55766 5.945625,-9.45001 0.698906,-2.45109 1.397812,-5.24671 2.096719,-6.9989 l 3.504375,1.04344 c -0.698906,2.45109 -1.397813,5.25656 -2.451094,8.05218 -1.752188,5.25657 -3.494531,10.14891 -9.45,10.14891 m 208.953279,-5.24672 -2.09672,0 -2.80547,-5.60109 0.34453,0 c 2.10657,1.05328 5.6011,2.80547 8.40657,2.80547 1.75218,0 3.15,-1.05329 3.15,-3.50438 0,-5.94563 -13.99782,-1.39781 -13.99782,-9.79453 0,-6.65438 6.64453,-8.40656 11.54672,-8.40656 l 2.4511,5.24672 -0.69891,0.6989 c -1.40766,-1.39781 -3.84891,-3.14016 -6.3,-3.14016 -2.09672,0 -3.50438,1.04344 -3.50438,3.49454 0,5.95546 13.99782,0.6989 13.99782,10.50328 0,4.54781 -5.6011,7.69781 -10.49344,7.69781 m -223.649998,0 c -4.902187,-2.10656 -5.601094,-2.79562 -11.546719,-4.20328 3.15,-7.35328 4.547813,-13.99781 5.945625,-20.99672 l 4.902188,2.09672 c -2.451094,5.95547 -4.203281,10.85765 -5.601094,17.85656 2.889688,0.86078 5.056406,1.48641 7.300781,1.48641 0.476875,0 0.958125,-0.0284 1.450313,-0.0886 l 0.344531,0.34454 c -0.689062,1.05328 -2.451094,2.80546 -2.795625,3.50437 M 41.749454,305.47336 c -8.052188,-2.45109 -17.846719,-8.74125 -25.2,-10.84781 l 0,-1.05328 c 3.15,-2.09672 16.104375,-15.04125 16.803281,-17.84672 -1.397812,-10.14891 -5.256562,-25.54453 -6.998906,-30.8011 l 0.698906,-0.34453 c 13.997813,10.84782 34.295625,20.65219 51.443438,27.99563 l -0.344532,5.60109 c -22.748906,-9.79453 -33.606562,-16.80328 -44.099999,-22.7489 2.096718,5.94562 3.15,15.74999 4.902187,21.35109 -5.256563,4.54781 -8.751094,11.54672 -14.352188,15.75 5.601094,1.39781 11.901094,5.59125 17.846719,7.69781 l -0.698906,5.24672 m 276.501096,-0.69891 -1.05328,-5.24672 c 5.95547,-2.09672 12.95437,-5.95547 18.20109,-8.05219 -5.24672,-4.54781 -9.79453,-10.1489 -14.69672,-15.75 1.39782,-5.60109 3.15,-15.39562 5.24672,-21.69562 -10.84781,5.60109 -21.70547,12.94453 -44.7989,23.44781 l 0,-5.95547 c 12.95437,-5.24672 40.25109,-19.24453 51.45328,-27.99562 l 1.04343,0.35437 c -1.75218,5.24672 -5.60109,20.65219 -6.9989,30.09235 0.6989,3.15 12.25547,15.40547 16.80328,18.20109 l 0,1.05328 c -7.35328,1.75219 -16.80328,9.79453 -25.2,11.54672"
         id="path413"
         style="fill:#1c1b1a;fill-opacity:1;fill-rule:nonzero;stroke:none" />
      <path
         d="m 179.99508,275.02664 c -4.19344,-1.05328 -7.69781,-2.80547 -11.54672,-4.20328 C 132.40055,259.27664 99.148361,244.92445 78.151642,215.53101 61.702736,192.42773 61.00383,160.22883 61.00383,133.27664 l 0,-99.047812 c 0,-0.125782 0,-0.250469 0,-0.375157 0,-0.123594 0,-0.246094 0,-0.368594 0,-0.122499 0,-0.243906 0,-0.364218 0,-0.120313 0,-0.239532 0,-0.35875 -0.0011,-7.124688 -0.02188,-11.27 -0.354375,-18.486563 6.998906,0 12.954375,0.354375 21.351094,0.354375 l 196.353281,0 c 8.04234,0 14.34234,-0.354375 20.99672,-0.354375 -0.35438,7.353281 -0.35438,12.6 -0.35438,19.953282 l 0,99.047812 c 0,26.95219 -0.6989,59.15109 -16.79343,82.25437 -21.3511,29.39344 -54.60328,43.74563 -90.30657,55.29235 -3.8489,1.39781 -6.9989,2.80547 -11.90109,4.20328 M 62.081174,15.648203 c 0.290937,6.850156 0.290937,11.049062 0.290937,18.580625 l 0,99.047812 c 0,13.45641 0.177188,28.18266 2.392032,42.35766 2.205,14.18484 6.447656,27.7889 14.499843,39.09937 10.365469,14.49984 23.743124,25.30828 39.069844,33.95109 15.30703,8.63297 32.55328,15.08063 50.53781,20.83922 l 0.0295,0.01 0.0197,0.01 c 3.83141,1.39563 7.19031,3.04938 11.05781,4.06438 4.60688,-1.33547 7.64204,-2.68188 11.45485,-4.06438 l 0.0295,-0.01 0.0197,-0.01 c 17.80734,-5.75859 34.965,-12.20625 50.28187,-20.83922 15.30922,-8.63843 28.77875,-19.44031 39.31922,-33.93906 l -0.003,-0.002 c 7.88484,-11.31046 12.03891,-24.92437 14.20453,-39.10921 2.17547,-14.175 2.35266,-28.90125 2.35266,-42.35766 l 0,-99.047812 c 0,-6.860001 0,-11.924063 0.28875,-18.579532 -6.0911,0.04375 -12.06516,0.348906 -19.57266,0.348906 l -196.353281,0 c -7.855313,0 -13.567969,-0.307343 -19.919375,-0.349999"
         id="path477"
         style="fill:#003365;fill-opacity:1;fill-rule:nonzero;stroke:none" />
      <path
         d="m 99.847267,186.82664 -0.698906,-0.35438 c 1.053279,-4.89234 1.397809,-10.49343 1.397809,-16.4489 0,-7.69781 -0.698903,-15.39563 -0.698903,-21.69563 l 0,-74.546715 c 5.955473,-2.805469 7.707653,-7.00875 10.148903,-11.202188 -0.3489,3.848907 -0.43531,8.485313 -0.43422,13.209219 0.001,4.723907 0.0897,9.535313 0.0897,13.733125 l 0,57.753279 c 0,4.94047 0.315,10.66735 0.31063,16.12407 -0.002,2.66437 -0.0809,5.26531 -0.31063,7.67812 -0.35437,1.75219 -8.40656,15.39562 -9.804373,15.75 m 78.405463,8.05219 c -3.15,-0.69891 -5.95547,-1.75219 -8.05219,-2.80547 -1.05328,-0.69891 -2.45109,-2.79562 -3.50437,-2.79562 -0.34453,0 -2.44125,1.04343 -3.15,1.04343 -4.54781,0.70875 -9.45,1.05328 -14.69672,1.05328 -10.14891,0 -20.65219,-1.05328 -30.44672,-1.05328 -1.55859,0 -3.13797,-0.0208 -4.69766,-0.0208 -4.74468,0 -9.29578,0.19469 -12.46,1.77297 4.20329,-6.3 8.7511,-12.6 12.25547,-19.94344 5.94563,2.4511 9.79453,4.54782 22.05,4.54782 5.94563,0 12.24563,-0.34454 17.84672,-0.34454 6.3,0 11.9011,0.68907 16.10438,2.79563 5.60109,3.15 8.39672,8.39672 8.75109,15.75 m 2.79563,0 c 0.35438,-6.3 3.15,-12.25547 7.69781,-15.05109 4.24813,-3.11172 10.56344,-3.77344 17.5525,-3.77344 2.58235,0 5.25657,0.0897 7.95266,0.18047 2.68844,0.0897 5.39875,0.17937 8.05984,0.17937 2.90063,0 5.74219,-0.10719 8.43828,-0.43531 6.3,-0.35438 10.50329,-2.80547 15.0511,-4.54781 3.50437,6.64453 8.05218,12.6 12.25547,18.89015 -2.80547,-0.68906 -6.65438,-0.68906 -10.50328,-0.68906 -6.3,0 -17.50219,0.68906 -23.80219,0.68906 l -17.50219,0 c -0.37625,0.0263 -0.75687,0.0372 -1.13969,0.0372 -1.8025,0 -3.66625,-0.25812 -5.43594,-0.50969 -1.75765,-0.25703 -3.43109,-0.51843 -4.87156,-0.51843 -0.81922,0 -1.56406,0.0842 -2.20609,0.30187 -1.04344,0 -2.44125,1.74234 -3.49453,2.44125 -2.4511,1.40766 -4.90219,2.10656 -8.05219,2.80547 m 79.80328,-8.7511 c -1.75219,-2.09672 -3.15,-3.84891 -4.90219,-6.3 -1.75219,-2.09672 -5.24672,-5.95547 -5.60109,-8.75109 -0.45828,-2.29688 -0.61688,-4.78188 -0.62125,-7.33141 -0.01,-5.22156 0.62125,-10.71547 0.62125,-15.4175 l 0,-56.001094 c 0,-3.979062 0.058,-8.19 0.0569,-12.39875 -0.001,-6.15125 -0.13015,-12.297031 -0.75578,-17.703437 2.10656,4.203281 5.6011,9.105469 10.14891,10.847812 l 0,73.857659 c 0,5.5125 -0.13344,11.4264 -0.13781,17.33156 -0.004,7.59281 0.20562,15.17141 1.19109,21.86625"
         id="path497"
         style="fill:#fff000;fill-opacity:1;fill-rule:nonzero;stroke:none" />
      <path
         d="m 179.99508,282.37992 c -1.38797,-0.70875 -4.54781,-1.75219 -5.60109,-2.10656 -44.1,-15.04125 -77.696723,-27.29672 -101.843441,-60.89344 C 57.499455,198.02883 54.349455,171.77555 54.349455,138.17883 l 0,-130.203285 251.645625,0 0,130.203285 c 0,33.59672 -3.49453,59.85 -18.54562,81.20109 -23.80219,33.59672 -57.39891,45.85219 -101.85329,60.89344 -1.04343,0.35437 -3.8489,1.39781 -5.60109,2.10656 m -11.96016,-10.24844 c 3.73297,1.35625 7.27454,3.12594 11.63532,4.22407 l 0.35437,0.0886 0.35438,-0.0984 c 4.99078,-1.42734 8.19984,-2.86453 11.98968,-4.23281 l -0.002,-0.005 c 17.87953,-5.775 35.17718,-12.27734 50.73687,-21.04047 15.57281,-8.78062 29.39344,-19.845 40.21172,-34.73859 l 0.01,-0.01 0,-0.01 c 8.21954,-11.79281 12.46219,-25.83 14.66719,-40.26094 2.205,-14.43093 2.38219,-29.28515 2.38219,-42.77109 l 0,-99.047814 c 0,-7.353281 0,-12.570468 0.34453,-19.884375 l -0.0425,-1.453491 -1.32583,0.0163 c -6.7036,0 -12.98391,0.354375 -20.99672,0.354375 l -196.353281,0 c -8.357344,0 -14.293125,-0.354375 -21.34125,-0.354375 l -1.437188,0 0.06891,1.437187 c 0.344532,7.668282 0.344532,11.832188 0.344532,19.884375 l 0,99.047818 c 0,13.48594 0.177187,28.34016 2.421562,42.78094 2.254219,14.43093 6.585469,28.46812 14.982188,40.26093 10.641093,14.90344 24.373117,25.96782 39.945937,34.74844 15.57281,8.77078 32.9864,15.2775 51.04968,21.06563 l 0,-10e-4"
         id="path517"
         style="fill:#1c1b1a;fill-opacity:1;fill-rule:nonzero;stroke:none" />
      <path
         d="m 180.34945,209.92992 c -12.6,0 -16.44891,-2.10656 -16.44891,-7.69781 0,-2.10656 0.35438,-4.20328 1.39782,-6.65438 -2.77813,1.14516 -6.62704,1.45032 -10.76141,1.45032 -4.71406,0 -9.8,-0.39704 -14.08422,-0.39704 l -47.249999,0 0,-92.0489 c 0,-12.255471 1.397813,-26.95219 -0.354375,-38.508752 3.15,0.354375 6.644531,0 9.804374,0.354375 2.79563,-3.494532 5.94563,-7.697813 8.05219,-11.546719 6.29015,3.848906 13.64344,5.945625 23.79234,5.945625 5.6011,0 16.44891,-1.053281 23.80219,-1.053281 11.20219,0 19.95328,3.159843 20.99672,17.856562 2.45109,-15.405469 11.20219,-17.856562 23.10328,-17.856562 6.3,0 13.29891,0.70875 20.65219,0.70875 13.99781,0 18.9,-2.451094 25.8989,-5.955469 2.4511,4.203281 5.24672,7.697812 8.40657,11.546719 2.44125,-0.354375 6.29015,-0.354375 9.45,-0.354375 l 0,130.912027 -46.20657,0 c -4.03703,0 -8.34968,0.13782 -12.5114,0.13782 -5.215,0 -10.19375,-0.21657 -14.08641,-1.1911 1.39781,2.4511 1.75219,4.54782 1.75219,6.3 0,6.64453 -7.35328,8.05219 -15.40547,8.05219 m -12.24562,-14.35219 c 0.34453,2.09672 0.34453,4.90219 1.39781,6.3 1.39781,2.09672 6.3,3.15 10.84781,3.15 3.50438,0 6.65437,-0.35437 8.39672,-1.39781 2.10656,-1.05328 2.45109,-5.60109 3.15,-8.05219 -3.49453,2.4511 -7.34344,3.49453 -12.24563,3.49453 -3.50437,0 -8.39672,-1.39781 -11.54671,-3.49453 m 38.19484,-19.52344 c -6.98906,0 -13.30438,0.66172 -17.5525,3.77344 -4.54781,2.79563 -7.34344,8.7511 -7.69781,15.0511 3.15,-0.69891 5.60109,-1.39782 8.05218,-2.80547 1.05328,-0.69891 2.4511,-2.44125 3.49453,-2.44125 0.64204,-0.21766 1.38688,-0.30188 2.2061,-0.30188 1.44047,0 3.11391,0.26141 4.87156,0.51844 1.76969,0.25156 3.63344,0.50969 5.43594,0.50969 0.38281,0 0.76344,-0.0109 1.13969,-0.0372 l 17.50218,0 c 6.3,0 17.50219,-0.68906 23.80219,-0.68906 3.84891,0 7.69781,0 10.50328,0.68906 -4.20328,-6.29016 -8.75109,-12.24562 -12.25547,-18.89016 -4.54781,1.74235 -8.75109,4.19344 -15.05109,4.54782 -2.69609,0.32812 -5.53766,0.43531 -8.43828,0.43531 -2.6611,0 -5.37141,-0.0897 -8.05985,-0.17938 -2.69609,-0.0908 -5.37031,-0.18047 -7.95265,-0.18047 m -28.04594,18.82454 c -0.35437,-7.35329 -3.15,-12.6 -8.75109,-15.75 -4.20328,-2.10657 -9.80438,-2.79563 -16.10438,-2.79563 -5.60109,0 -11.90109,0.34453 -17.84672,0.34453 -12.25547,0 -16.10437,-2.09672 -22.05,-4.54781 -3.50437,7.34344 -8.05218,13.64344 -12.25547,19.94344 3.16422,-1.57828 7.71532,-1.77297 12.46,-1.77297 1.55969,0 3.13907,0.0208 4.69766,0.0208 9.79453,0 20.29781,1.05328 30.44672,1.05328 5.24672,0 10.14891,-0.34453 14.69672,-1.05328 0.70875,0 2.80547,-1.04344 3.15,-1.04344 1.05328,0 2.45109,2.09672 3.50437,2.79563 2.09672,1.05328 4.90219,2.10656 8.05219,2.80547 m -79.104374,-8.40657 0.698906,0.35438 c 1.397808,-0.35438 9.449998,-13.99781 9.804378,-15.75 0.22968,-2.41281 0.30843,-5.01375 0.31062,-7.67813 0.004,-5.45671 -0.31062,-11.18359 -0.31062,-16.12406 l 0,-57.75328 c 0,-4.197812 -0.0886,-9.009219 -0.0897,-13.733125 -0.001,-4.723906 0.0853,-9.360312 0.43422,-13.209219 -2.44125,4.193438 -4.19344,8.396719 -10.148908,11.202188 l 0,74.546716 c 0,6.3 0.698908,13.99782 0.698908,21.69563 0,5.95547 -0.34453,11.55656 -1.397814,16.4489 m 161.703284,-0.34453 c -0.98547,-6.69484 -1.19547,-14.27343 -1.1911,-21.86625 0.004,-5.90515 0.13782,-11.81906 0.13782,-17.33156 l 0,-73.857656 c -4.54782,-1.742344 -8.04235,-6.644531 -10.14891,-10.847813 0.62562,5.406407 0.75469,11.552188 0.75578,17.703438 0.001,4.20875 -0.0569,8.419687 -0.0569,12.39875 l 0,56.001091 c 0,4.70203 -0.6311,10.19594 -0.62125,15.4175 0.004,2.54953 0.16296,5.03453 0.62125,7.33141 0.35437,2.79562 3.8489,6.65437 5.60109,8.75109 1.75219,2.4511 3.15,4.20328 4.90219,6.3 m -80.50219,-64.05328 c 0,20.65219 0.69891,41.64891 0.69891,61.95656 5.81984,-11.02171 17.6925,-11.55 30.70484,-11.55 0.67812,0 1.36172,0.002 2.04531,0.003 0.55125,0.001 1.1036,0.001 1.65703,0.001 7.76453,0 15.75985,-0.13672 22.99172,-2.46203 2.4511,-0.69891 6.30985,-1.39781 7.69781,-3.49453 0.64204,-1.0675 0.76454,-7.07438 0.76235,-12.63282 -0.001,-3.56234 -0.0536,-6.94203 -0.0536,-8.71828 l 0,-85.404372 -1.05329,0 c -4.90218,2.805468 -11.20218,4.203281 -18.9,4.203281 -6.3,0 -13.2989,-0.698906 -20.65218,-0.698906 -6.99891,0 -12.94454,0.344531 -16.79344,2.795625 -5.25656,3.848906 -7.70766,9.105468 -8.05219,18.9 -0.69891,11.901093 -1.05328,24.501092 -1.05328,37.101092 m -27.65109,50.05547 c 12.25546,0 21.35109,2.79562 25.55437,11.54672 l 0,-74.20219 c 0,-5.54969 0.31172,-11.83328 0.30953,-17.819374 -0.001,-4.960156 -0.21875,-9.715781 -1.00844,-13.680625 -1.05328,-4.193437 -3.15984,-8.396718 -5.95546,-10.503281 -4.20329,-3.494531 -10.50329,-4.193437 -17.14782,-4.193437 -7.69781,0 -12.95437,1.053281 -23.80218,1.053281 -8.7511,0 -12.24563,-1.752188 -17.50219,-4.203281 l 0,85.049997 c 0,2.80657 -0.53266,9.34828 -0.52828,14.60485 0.002,3.26047 0.21218,6.02656 0.88265,7.10062 2.09672,4.19344 15.0511,5.94563 25.2,5.94563 5.6011,0 10.14891,-0.69891 13.99782,-0.69891 m 121.89625,4.25141 c -1.61547,0 -3.49891,-0.13016 -5.69079,-0.4025 l 0.69891,-3.15 2.12625,1.59468 6.3,-0.35437 2.52,-1.1025 1.50609,-4.34109 0.10829,-1.40766 -13.61391,-0.33469 0.69891,-2.10656 c 0.70437,0.11812 1.40656,0.19687 2.05625,0.19687 1.295,0 2.38109,-0.31281 2.84593,-1.25015 1.05328,-1.39781 1.39782,-6.3 1.39782,-10.14891 0,-4.89234 -0.69891,-12.24562 -1.04344,-15.05109 1.39781,1.40765 3.8489,5.25656 5.60109,5.25656 3.15,0 4.19344,-2.10656 5.94563,-3.50437 -0.35438,6.3 -0.69891,29.74781 -3.15,33.25218 -1.295,1.81125 -3.73407,2.8536 -8.30703,2.8536 m 2.00703,-11.60469 c 0.87609,0.34891 1.83859,0.5239 2.75625,0.5239 0.91765,0 1.79156,-0.17499 2.49047,-0.5239 1.05328,-5.95547 1.40765,-13.29891 2.10656,-19.59891 -2.10656,1.39782 -2.80547,2.4511 -3.50438,2.4511 -0.6989,0 -1.39781,-1.05328 -2.79562,-2.79563 -0.35438,5.94563 -0.35438,13.64344 -1.05328,19.94344 m -191.885315,9.00812 c -4.990781,0 -7.258125,-0.85203 -8.316875,-2.70812 -2.451094,-3.84891 -3.15,-26.59781 -3.494531,-32.89781 1.742343,1.05328 3.15,3.15 5.945625,3.15 1.752187,0 4.193437,-3.84891 5.945625,-5.24672 -0.344532,2.79562 -1.043438,10.13906 -1.043438,15.04125 0,3.50437 0.344531,8.75109 1.397813,10.15875 0.348906,0.52172 1.048906,0.69672 1.922812,0.69672 0.875,0 1.926094,-0.175 2.979375,-0.35219 l 0.698906,2.45109 c -0.06453,0.0241 -0.130156,0.0459 -0.195781,0.0689 l 0.01859,-0.12797 -5.975156,0.72844 -6.752813,0.25594 -0.4725,0.46265 -0.216562,0.0886 -0.167344,3.07126 3.120469,2.2739 8.888906,-0.12797 0.698906,-0.74812 0.698906,3.50437 c -2.206093,0.16953 -4.082968,0.25703 -5.680937,0.25703 m -9.370156,-31.4125 c 0.70875,6.65438 1.053281,14.00766 1.752187,19.60875 0.698906,0.34891 1.575,0.52391 2.49375,0.52391 0.919844,0 1.88125,-0.175 2.752969,-0.52391 -0.344531,-6.3 -0.344531,-13.65328 -0.698906,-19.95328 -1.742344,2.09672 -2.096719,3.15 -3.15,3.15 -0.698907,0 -1.397813,-1.05328 -3.15,-2.80547 m 7.760156,-37.55609 c -0.827969,0 -1.666875,-0.0667 -2.503594,-0.23406 -8.751094,-1.75219 -6.998906,-26.95219 -8.406562,-37.11094 2.106562,1.053281 4.557656,2.451094 5.955468,2.451094 1.397813,0 4.547813,-2.451094 6.3,-3.848906 0,2.805468 -0.698906,9.105468 -0.698906,15.051093 0,5.955469 0.698906,11.546719 2.44125,12.255469 0.70875,0.344531 2.805469,0.344531 4.557656,0.344531 -0.354375,0.354375 0,1.053282 0,2.106563 -0.05906,0.0098 -0.118125,0.01859 -0.177187,0.02844 l 0,-0.372968 -3.573281,0.127968 -8.357344,0.610313 -1.427344,0 -0.315,1.328906 -0.196875,1.830938 1.122188,0.718592 1.830937,0.91547 2.647969,0.91547 8.26875,-0.71859 0,-0.11922 c 0.05906,-0.007 0.118125,-0.012 0.177187,-0.0186 -0.354375,0.69891 -0.354375,2.4511 -0.354375,2.79563 -2.12625,0.26906 -4.661562,0.94281 -7.290937,0.94281 M 75.346169,71.674451 c 1.053281,7.353282 0.70875,15.75 1.407656,22.748907 1.742344,0 3.848906,0 5.246719,-0.344532 0,-1.407656 -0.354375,-3.15 -0.354375,-3.848906 l 0,-18.9 c -1.742344,1.397813 -2.096719,2.795625 -3.15,2.795625 -0.344532,0 -1.053282,-1.053281 -3.15,-2.451094 M 277.54445,103.98492 c -2.65891,0 -5.79031,-0.56875 -7.94172,-0.81047 0,-0.34453 -0.35437,-1.75219 -0.35437,-2.79562 l 2.22468,0.75797 4.48875,0.50203 3.98672,-0.55125 2.16563,-1.614379 1.00406,-3.130312 0.0492,-1.004063 -13.91906,-0.561093 0,-2.451094 c 0.82906,0.146562 1.54875,0.21875 2.17546,0.21875 3.87625,0 4.17376,-2.750781 4.47891,-7.572031 0.34453,-6.998907 -0.35437,-14.352188 -1.05328,-20.642344 0,-0.354375 0,-0.70875 0.35437,-0.70875 1.04344,0 3.15,4.203281 6.64454,4.203281 1.75218,0 3.50437,-1.053281 5.94562,-3.15 -2.09672,10.148906 0,35.348905 -6.99891,38.853285 -0.88593,0.33359 -2.01796,0.45609 -3.25062,0.45609 m 0.11047,-11.31375 c 1.02484,0.519531 2.04969,0.843281 3.49016,0.843281 0.5239,0 1.10249,-0.04266 1.75656,-0.134531 1.05328,-6.654375 0.6989,-16.104375 1.05328,-23.103281 -1.40766,1.397812 -2.10656,2.096718 -2.80547,2.096718 -1.04344,-0.344531 -1.74234,-1.043437 -3.15,-2.795624 0.14437,3.127031 0.22969,6.37 0.23297,9.586718 0.005,4.703125 -0.16297,9.351563 -0.5775,13.506719 m -5.92594,81.75235 -2.12625,-1.59469 c 2.31109,0.2461 4.13547,0.37625 5.58797,0.37625 4.70859,0 5.50812,-1.36718 6.31312,-4.57953 l -0.35437,-0.6989 c -1.62641,0 -3.17406,0.0383 -4.64516,0.0383 -2.96297,0 -5.61312,-0.15422 -7.95484,-1.08172 l 13.6139,0.33468 -0.10828,1.40766 -1.50609,4.34109 -2.52,1.1025 -6.3,0.35438 m 4.23282,-72.78469 -4.48875,-0.50203 -2.22469,-0.75797 c 2.00156,0.16406 4.63531,0.56656 6.99781,0.56656 2.59985,0 4.86938,-0.48781 5.60219,-2.318747 0.35438,-0.698907 0.35438,-2.106563 0.35438,-2.451094 -4.90219,0 -9.45,-0.344531 -12.95438,-1.397813 l 13.91906,0.561094 -0.0492,1.004063 -1.00407,3.130312 -2.16562,1.614375 -3.98672,0.55125 m -193.656095,0.29531 -2.647969,-0.91547 -1.830937,-0.91547 -1.122188,-0.718591 0.196875,-1.830938 0.315,-1.328906 1.427344,0 8.357344,-0.610313 3.573281,-0.127968 0,0.372969 c -4.144219,0.670468 -8.298281,1.020468 -13.131563,1.369374 l 0,1.752188 c 2.420469,1.969845 4.422032,2.568125 7.222032,2.568125 1.623125,0 3.514218,-0.20125 5.909531,-0.45281 l 0,0.11922 -8.26875,0.71859 m -2.195157,68.96531 -3.120469,-2.27391 0.167344,-3.07125 0.216562,-0.0886 0.472501,-0.46266 6.752812,-0.25593 5.975156,-0.72844 -0.01859,0.12797 c -3.795312,1.32781 -7.939531,1.3289 -12.758593,1.3289 l -0.354375,0.69891 c 0.799531,2.92359 1.599062,4.23391 6.384218,4.23391 1.514844,0 3.431094,-0.13125 5.87125,-0.385 l -0.698906,0.74812 -8.888906,0.12797"
         id="path521"
         style="fill:#06000f;fill-opacity:1;fill-rule:nonzero;stroke:none" />
      <path
         d="m 222.35273,156.37992 c -2.80547,-0.69891 -5.94562,-0.69891 -9.10547,-0.69891 -3.8489,0 -8.05218,0.69891 -11.54671,0.69891 1.05328,-8.05219 0.34453,-13.65328 3.49453,-19.25437 -2.79563,-1.04344 -3.49453,-3.15 -3.49453,-5.24672 0,-2.10657 1.39781,-4.20328 2.09671,-5.95547 l 0.70875,0 c 0,1.40765 0.34454,3.8489 1.04344,4.20328 1.74563,1.24797 5.97516,1.42734 9.02453,1.42734 1.23266,0 2.27282,-0.0295 2.87657,-0.0295 3.15,0 6.3,1.39781 6.3,9.10547 0,9.45 -1.39782,9.79453 -1.39782,15.75 m -9.45,-6.65437 c 2.79563,0 5.24672,0 7.69782,0.6989 0,-6.64453 -0.35438,-9.79453 -2.4511,-11.54672 -1.74234,-1.39781 -4.90219,-1.39781 -10.84781,-1.39781 -1.05328,3.15 -1.75219,6.3 -1.75219,8.39672 0,0.69891 0.35438,4.20328 0.35438,4.54781 2.09672,-0.34453 4.54781,-0.6989 6.9989,-0.6989 m -60.90328,6.65437 c -3.50437,-0.69891 -6.65437,-0.69891 -10.1489,-0.69891 -3.15,0 -6.99891,0.34454 -10.14891,0.69891 0.34453,-7.69781 0,-14.70656 3.84891,-19.25437 -2.79563,-1.04344 -3.84891,-2.79563 -3.84891,-4.90219 0,-2.09672 1.05328,-3.84891 2.09672,-5.94563 l 0.6989,0 c 0.69891,3.49453 2.10657,4.54782 7.35329,4.90219 6.9989,0.69891 11.90109,1.04344 11.90109,10.49344 0,4.90219 -1.75219,9.45 -1.75219,14.70656 m -9.09562,-6.3 c 2.79562,0 4.89234,0.34453 7.34343,0.69891 -0.6989,-6.65438 -0.34453,-9.45 -1.75218,-10.84782 -1.39782,-1.75218 -4.19344,-1.75218 -11.19235,-2.45109 -1.40765,3.49453 -2.10656,7.69781 -2.10656,13.29891 2.45109,-0.35438 5.25656,-0.69891 7.70766,-0.69891 m 104.00359,3.81609 c -0.001,-3.56234 -0.0536,-6.94203 -0.0536,-8.71828 0,1.77625 0.0525,5.15594 0.0536,8.71828 m -85.81234,-11.86828 -0.68907,0 c 0,-1.05328 0,-3.15 -0.35437,-3.50437 -0.35438,-0.69891 -1.05328,-2.09672 -2.10656,-3.49453 -1.39782,-1.40766 -1.74235,-3.15 -1.74235,-4.54782 0,-2.10656 2.4511,-4.55765 3.49453,-6.30984 l 0.70875,0.35438 0,3.15 c 0.68907,2.80546 4.19344,4.20328 4.19344,8.05218 0,1.75219 -2.09672,4.20328 -3.50437,6.3 m 71.05218,-0.6989 -1.04343,-0.35438 c 0,-1.04344 0,-3.8489 -0.35438,-4.20328 -0.34453,-0.68906 -2.09672,-1.74234 -2.79562,-2.44125 -1.39782,-1.05328 -1.75219,-2.80547 -1.75219,-4.20328 0,-2.10656 2.09672,-4.54781 3.49453,-6.3 l 0.70875,0 c -0.35437,1.39781 -0.70875,2.80547 -0.35437,3.50437 0.6989,3.49454 4.90218,2.79563 4.90218,6.64454 0,1.05328 -1.75218,4.90218 -2.80547,7.35328 m -113.04562,-27.6511 c -1.05328,0 -1.05328,-0.6989 -0.69891,-0.6989 0.69891,-1.05328 0.69891,-2.10657 0.69891,-3.50438 0,-1.39781 -0.69891,-4.19344 -0.69891,-6.64453 0,-2.80547 3.15,-5.955468 4.19344,-8.052186 -2.79562,-1.397813 -4.19344,-3.848907 -4.19344,-6.3 0,-2.096719 0.69891,-4.557657 2.79563,-5.945625 l 0.6989,0 c -1.04343,4.193437 2.10657,6.644531 4.20329,6.644531 1.05328,-2.451094 2.09671,-4.203281 4.19343,-6.644531 l 1.05328,0 c -0.34453,4.547812 1.40766,6.290156 3.50438,7.343437 3.15,1.752188 6.3,2.451094 6.3,6.644531 0,3.504373 -1.75219,7.707653 -2.45109,10.503283 -1.39782,4.54781 -2.80547,6.3 -6.3,6.3 -1.05329,0 -2.4511,-0.34453 -4.54782,-0.34453 -1.05328,0 -2.45109,0.34453 -3.15,0.34453 l -1.05328,0 c 1.05328,-2.09672 1.39781,-3.84891 2.09672,-5.94563 l 5.25656,0 c 1.39782,0 3.49453,0 4.19344,-0.6989 1.40766,-1.05328 2.45109,-4.20328 2.45109,-5.6011 0,-5.246715 -6.9989,-6.654371 -11.20218,-8.75109 -1.39782,2.795625 -4.19344,5.601094 -4.19344,8.05219 0,1.39781 0.69891,3.49453 0.69891,5.24672 0,4.20328 -2.4511,6.3 -3.84891,8.05218 m 21.69562,-0.35437 c 0.69891,-2.79563 0.69891,-4.19344 1.40766,-4.89235 0.69891,-0.70875 1.39781,-0.70875 4.54781,-1.75218 -0.35437,-2.4511 -0.35437,-4.55766 -0.35437,-6.3 0,-1.75219 0,-3.504378 0.6989,-5.601096 -3.49453,-1.053282 -3.8489,-3.848907 -3.8489,-6.998907 0,-1.397812 0.35437,-3.15 0.6989,-4.902187 l 0.69891,0 c 1.05328,4.203281 2.45109,5.246719 4.55766,5.246719 1.74234,0 3.49453,-0.344532 5.60109,-0.344532 1.39781,0 2.79563,0 4.19344,0.698907 3.15,1.752187 0.6989,16.104376 3.8489,19.598906 -0.6989,1.75219 -2.09671,3.84891 -3.8489,4.90219 l -0.69891,0 c 0,-1.75219 0.35438,-5.95547 0.35438,-10.14891 0,-3.848905 -0.35438,-7.35328 -1.75219,-8.052186 -0.81703,-0.351094 -1.63406,-0.468125 -2.45109,-0.468125 -1.63407,0 -3.26813,0.468125 -4.90219,0.468125 -0.34453,1.053281 -1.05328,2.096718 -1.05328,3.848906 0,4.20328 2.80547,8.75109 2.80547,10.84781 0,2.80547 -2.4511,3.84891 -10.50329,3.84891 m 72.10547,-0.34453 -0.6989,0 c -0.35438,-2.10657 -0.35438,-4.20328 -0.35438,-5.95547 0,-4.19344 0.35438,-7.697814 0.69891,-11.901095 -5.6011,0 -6.99891,-1.742344 -6.99891,-6.3 0,-1.397813 0.35438,-3.494531 1.05328,-5.246719 l 0.69891,0 c 0.34453,0.698906 0.69891,2.096719 1.05328,2.805469 0.34453,1.043437 1.74234,1.742344 3.49453,1.742344 2.4511,0.354375 4.90219,0.354375 4.90219,2.805468 0,3.15 -0.69891,4.193438 -1.39781,5.59125 -0.35438,1.053282 -0.70875,2.106563 -0.70875,3.159844 0,2.096719 0,5.601089 1.05328,6.998909 0.35437,0.34453 0.35437,0.6989 1.05328,1.04343 l 0,0.70875 c -1.05328,2.44125 -2.45109,3.49454 -3.84891,4.54782 m -11.90109,0 -0.69891,0 c 0,-1.75219 0.35438,-5.95547 0.35438,-10.14891 0,-3.848905 -0.35438,-5.601093 -0.70875,-6.309843 -0.65188,-1.138593 -1.83531,-1.441562 -3.23422,-1.441562 -1.60016,0 -3.48141,0.398125 -5.1625,0.398125 -2.45109,0 -5.60109,-2.451094 -5.60109,-6.654375 0,-1.397813 0,-3.15 1.05328,-4.547813 l 0.6989,0 c 0.69891,2.451094 1.39782,4.203282 3.15,4.203282 l 6.99891,0 c 1.75219,0 3.49453,0.344531 3.84891,1.043437 3.15,5.601094 0.34453,14.706559 3.49453,18.555469 -1.04344,1.75219 -2.44125,3.84891 -4.19344,4.90219 m 23.02344,-0.0263 c -1.33657,0 -2.79344,-0.20563 -4.12344,-0.32813 l 0,-1.05328 2.45109,-1.39781 c -0.35437,-1.74235 -0.35437,-3.49453 -0.35437,-4.89235 0,-1.75218 0.35437,-3.50437 1.75219,-4.55765 0.6989,-0.69891 1.39781,-1.043439 2.80546,-1.742345 -2.80546,-1.752188 -5.95546,-4.902188 -5.95546,-9.459844 0,-1.742344 0.6989,-4.547812 2.45109,-5.945625 l 0.69891,0 c -0.69891,8.052188 6.3,11.202188 11.54671,13.653281 3.85875,-5.256562 -1.74234,-4.902187 -1.74234,-9.105468 0,-1.742344 2.09672,-3.848907 3.49453,-5.246719 l 0.69891,0.344531 c -0.34453,1.053281 -0.34453,1.752188 0,2.805469 0.35437,1.053281 1.75219,1.752187 2.45109,2.096719 0.69891,1.053281 1.05328,2.106562 1.05328,3.15 0,2.805468 -2.45109,5.246718 -4.20328,6.654375 -0.0394,-0.03938 -0.0613,-0.05688 -0.0678,-0.05688 -0.058,0 0.84437,1.148437 1.46562,1.454687 2.4511,1.397814 3.50438,3.504374 3.50438,5.955464 0,2.09672 -1.05328,5.24672 -3.84891,7.34344 l -1.05328,0 c 0.69891,-1.39781 0.69891,-2.79562 0.69891,-3.8489 0,-4.54782 -5.94563,-6.99891 -10.14891,-9.095629 -0.34453,1.043439 -1.75219,2.096719 -1.75219,4.193439 0,1.05328 2.80547,3.50437 2.80547,4.90219 0,3.43984 -2.0989,4.17703 -4.62765,4.17703 m -54.17891,-0.32813 -1.04344,0 c 0.34453,-2.79562 0.69891,-6.9989 0.69891,-10.1489 0,-2.795629 0.34453,-5.246723 0.69891,-7.697816 -5.94563,0 -6.99891,-1.397813 -6.99891,-5.955469 0,-1.742344 0.34453,-3.494531 0.69891,-5.601094 l 0.6989,0 c 0.35438,1.053281 0.69891,2.451094 1.05328,2.805469 0.69891,1.053281 2.09672,1.752187 3.49453,2.096719 2.4511,0.354375 5.24672,0.698906 5.24672,2.451093 0,3.15 -1.38797,4.547813 -1.74234,5.601094 0,1.053281 -0.35438,2.451094 -0.35438,3.15 0,2.451094 0,5.955464 0.70875,6.998904 0.34454,0.69891 0.69891,1.05328 1.38797,1.05328 l 0,0.69891 c -1.38797,2.79562 -2.09672,3.49453 -4.54781,4.54781"
         id="path5339"
         style="fill:#1c1b1a;fill-opacity:1;fill-rule:nonzero;stroke:none" />
      <path
         d="m 275.1907,173.20508 c -1.4525,0 -3.27688,-0.13016 -5.58797,-0.37625 l -1.05328,-5.94562 c 2.34172,0.9275 4.99187,1.08171 7.95484,1.08171 1.4711,0 3.01875,-0.0383 4.64516,-0.0383 l 0.35438,0.69891 c -0.80501,3.21234 -1.60454,4.57953 -6.31313,4.57953 m 1.05547,-72.25969 c -2.3625,0 -4.99625,-0.4025 -6.99781,-0.56656 l 0,-5.601096 c 3.50437,1.053281 8.05218,1.397812 12.95437,1.397812 0,0.344531 0,1.752188 -0.35437,2.451094 -0.73282,1.83094 -3.00235,2.31875 -5.60219,2.31875 m -191.581247,0.60375 c -2.8,0 -4.801563,-0.59828 -7.222031,-2.568125 l 0,-1.752188 c 4.833281,-0.348906 8.987343,-0.698906 13.131562,-1.369375 l 0,5.236878 c -2.395312,0.25156 -4.286406,0.45281 -5.909531,0.45281 m -0.837812,68.85922 c -4.785156,0 -5.584687,-1.31031 -6.384219,-4.23391 l 0.354375,-0.6989 c 4.819063,0 8.963281,-0.001 12.758594,-1.32891 l -0.8575,5.87672 c -2.440156,0.25375 -4.356406,0.385 -5.87125,0.385 m 97.221249,13.62266 c 0,-20.30766 -0.69891,-41.30437 -0.69891,-61.95656 0,-12.6 0.35438,-25.200002 1.05329,-37.101096 0.34453,-9.794531 2.79562,-15.051094 8.05218,-18.9 3.84891,-2.451094 9.79453,-2.795625 16.79344,-2.795625 7.35328,0 14.35219,0.698906 20.65219,0.698906 7.69781,0 13.99781,-1.397812 18.9,-4.203281 l 1.05328,0 0,85.404376 c 0,1.77625 0.0525,5.15594 0.0536,8.71828 0.002,5.55844 -0.12031,11.56531 -0.76234,12.63281 -1.38797,2.09672 -5.24672,2.79563 -7.69781,3.49453 -7.23188,2.32532 -15.22719,2.46204 -22.99172,2.46204 -0.55344,0 -1.10578,0 -1.65703,-0.001 -0.6836,-0.001 -1.36719,-0.003 -2.04532,-0.003 -13.01234,0 -24.885,0.52828 -30.70484,11.55 m 32.19891,-28.35 c 3.15984,0 6.3,0 9.10546,0.69891 0,-5.95547 1.39782,-6.3 1.39782,-15.75 0,-7.70766 -3.15,-9.10547 -6.3,-9.10547 -0.60375,0 -1.64391,0.0295 -2.87657,0.0295 -3.04937,0 -7.2789,-0.17938 -9.02453,-1.42734 -0.6989,-0.35438 -1.04343,-2.79563 -1.04343,-4.20329 l -0.70875,0 c -0.69891,1.75219 -2.09672,3.84891 -2.09672,5.95547 0,2.09672 0.6989,4.20328 3.49453,5.24672 -3.15,5.6011 -2.44125,11.20219 -3.49453,19.25438 3.49453,0 7.69781,-0.69891 11.54672,-0.69891 m 16.4489,-31.85437 c -1.39781,1.75218 -3.49453,4.19343 -3.49453,6.3 0,1.39781 0.35438,3.15 1.75219,4.20328 0.69891,0.6989 2.45109,1.75218 2.79562,2.44125 0.35438,0.35437 0.35438,3.15984 0.35438,4.20328 l 1.04344,0.35437 c 1.05328,-2.45109 2.80546,-6.3 2.80546,-7.35328 0,-3.8489 -4.20328,-3.15 -4.90218,-6.64453 -0.35438,-0.69891 0,-2.10656 0.35437,-3.50437 l -0.70875,0 M 206.60273,83.575551 c -0.6989,1.752188 -1.05328,3.848907 -1.05328,5.246719 0,4.557656 1.39782,6.3 6.99891,6.3 -0.34453,4.203281 -0.69891,7.70766 -0.69891,11.90109 0,1.75219 0,3.84891 0.35438,5.95547 l 0.69891,0 c 1.39781,-1.05328 2.79562,-2.10656 3.8489,-4.54781 l 0,-0.70875 c -0.6989,-0.34453 -0.6989,-0.69891 -1.05328,-1.04344 -1.05328,-1.39781 -1.05328,-4.90218 -1.05328,-6.998904 0,-1.053281 0.35437,-2.106562 0.70875,-3.159843 0.69891,-1.397813 1.39781,-2.44125 1.39781,-5.59125 0,-2.451094 -2.45109,-2.451094 -4.90219,-2.805469 -1.75218,0 -3.15,-0.698906 -3.49453,-1.742344 -0.35437,-0.70875 -0.70875,-2.106562 -1.05328,-2.805469 l -0.69891,0 m -9.88859,11.502969 c 1.39891,0 2.58234,0.302969 3.23422,1.441563 0.35438,0.70875 0.70875,2.460937 0.70875,6.309847 0,4.19343 -0.35437,8.39672 -0.35437,10.1489 l 0.6989,0 c 1.75219,-1.05328 3.15,-3.15 4.19344,-4.90218 -3.15,-3.84891 -0.34453,-12.95438 -3.49453,-18.555474 -0.35438,-0.698906 -2.09672,-1.043437 -3.84891,-1.043437 l -6.99891,0 c -1.75218,0 -2.45109,-1.752188 -3.15,-4.203281 l -0.6989,0 c -1.05328,1.397812 -1.05328,3.15 -1.05328,4.547812 0,4.203281 3.15,6.654375 5.60109,6.654375 1.68109,0 3.56235,-0.398125 5.1625,-0.398125 m 26.3375,-11.502969 c -1.75219,1.397813 -2.45109,4.203282 -2.45109,5.945625 0,4.557657 3.15,7.707657 5.95547,9.459844 -1.40766,0.698906 -2.10657,1.04344 -2.80547,1.74234 -1.39782,1.05329 -1.75219,2.80547 -1.75219,4.55766 0,1.39781 0,3.15 0.35437,4.89234 l -2.45109,1.39782 0,1.05328 c 1.33,0.1225 2.78688,0.32812 4.12344,0.32812 2.52875,0 4.62766,-0.73718 4.62766,-4.17703 0,-1.39781 -2.80547,-3.8489 -2.80547,-4.90219 0,-2.09671 1.40765,-3.15 1.75218,-4.193434 4.20329,2.096724 10.14891,4.547814 10.14891,9.095624 0,1.05328 0,2.4511 -0.69891,3.84891 l 1.05328,0 c 2.79563,-2.09672 3.84891,-5.24672 3.84891,-7.34344 0,-2.45109 -1.05328,-4.55766 -3.50437,-5.955469 -0.62125,-0.30625 -1.5236,-1.454687 -1.46563,-1.454687 0.007,0 0.0284,0.0175 0.0678,0.05688 1.75219,-1.407656 4.20329,-3.848906 4.20329,-6.654375 0,-1.043438 -0.35438,-2.096719 -1.05329,-3.15 -0.6989,-0.344531 -2.09672,-1.043438 -2.45109,-2.096719 -0.34453,-1.053281 -0.34453,-1.752187 0,-2.805469 l -0.69891,-0.344531 c -1.39781,1.397813 -3.49453,3.504375 -3.49453,5.246719 0,4.203281 5.6011,3.848906 1.74235,9.105469 -5.24672,-2.451094 -12.24563,-5.601094 -11.54672,-13.653282 l -0.69891,0 m -44.7989,100.101099 c -4.20329,-8.7511 -13.29891,-11.54672 -25.55438,-11.54672 -3.84891,0 -8.39672,0.6989 -13.99781,0.6989 -10.14891,0 -23.10328,-1.75218 -25.2,-5.94562 -0.67047,-1.07406 -0.88047,-3.84016 -0.88266,-7.10063 -0.004,-5.25656 0.52828,-11.79828 0.52828,-14.60484 l 0,-85.050001 c 5.25656,2.451094 8.7511,4.203281 17.50219,4.203281 10.84781,0 16.10438,-1.053281 23.80219,-1.053281 6.64453,0 12.94453,0.698906 17.14781,4.193437 2.79563,2.106563 4.90219,6.309844 5.95547,10.503282 0.78969,3.964843 1.00734,8.720468 1.00844,13.680625 0.002,5.986093 -0.30953,12.269687 -0.30953,17.819377 l 0,74.20219 m -36.40219,-27.99563 c 3.49453,0 6.64453,0 10.1489,0.69891 0,-5.25657 1.75219,-9.80438 1.75219,-14.70657 0,-9.45 -4.90219,-9.79453 -11.90109,-10.49343 -5.24672,-0.35438 -6.65438,-1.40766 -7.35328,-4.90219 l -0.69891,0 c -1.04344,2.09672 -2.09672,3.84891 -2.09672,5.94562 0,2.10657 1.05328,3.85875 3.84891,4.90219 -3.84891,4.54781 -3.50438,11.55656 -3.84891,19.25438 3.15,-0.35438 6.99891,-0.69891 10.14891,-0.69891 m 17.84672,-31.50984 c -1.04344,1.75218 -3.49454,4.20328 -3.49454,6.30984 0,1.39781 0.34454,3.14016 1.74235,4.54781 1.05328,1.39782 1.75219,2.79563 2.10656,3.49453 0.35438,0.35438 0.35438,2.4511 0.35438,3.50438 l 0.68906,0 c 1.40766,-2.09672 3.50437,-4.54781 3.50437,-6.3 0,-3.84891 -3.50437,-5.24672 -4.19343,-8.05219 l 0,-3.15 -0.70875,-0.35437 M 121.19836,82.532114 c -2.09672,1.387969 -2.79563,3.848906 -2.79563,5.945625 0,2.451094 1.39782,4.902187 4.19344,6.3 -1.04344,2.096719 -4.19344,5.246721 -4.19344,8.052191 0,2.45109 0.69891,5.24672 0.69891,6.64453 0,1.39781 0,2.45109 -0.69891,3.50437 -0.35437,0 -0.35437,0.69891 0.69891,0.69891 1.39781,-1.75219 3.84891,-3.84891 3.84891,-8.05219 0,-1.75219 -0.69891,-3.8489 -0.69891,-5.24672 0,-2.451091 2.79563,-5.25656 4.19344,-8.052185 4.20328,2.096719 11.20219,3.504375 11.20219,8.751095 0,1.39781 -1.04344,4.54781 -2.4511,5.60109 -0.6989,0.69891 -2.79562,0.69891 -4.19343,0.69891 l -5.25657,0 c -0.6989,2.09672 -1.04343,3.84891 -2.09672,5.94562 l 1.05329,0 c 0.6989,0 2.09671,-0.34453 3.14999,-0.34453 2.09672,0 3.49454,0.34453 4.54782,0.34453 3.49453,0 4.90219,-1.75218 6.3,-6.3 0.6989,-2.79562 2.45109,-6.9989 2.45109,-10.503277 0,-4.193438 -3.15,-4.892344 -6.3,-6.644532 -2.09672,-1.053281 -3.8489,-2.795625 -3.50437,-7.343437 l -1.05329,0 c -2.09671,2.44125 -3.14015,4.193437 -4.19343,6.644531 -2.09672,0 -5.24672,-2.451094 -4.20328,-6.644531 l -0.69891,0 m 22.74891,0.344531 c -0.34454,1.752188 -0.69891,3.504375 -0.69891,4.902188 0,3.15 0.35437,5.945625 3.84891,6.998906 -0.69891,2.096719 -0.69891,3.848906 -0.69891,5.601091 0,1.74235 0,3.84891 0.35438,6.3 -3.15001,1.04344 -3.84891,1.04344 -4.54782,1.75219 -0.70875,0.69891 -0.70875,2.09672 -1.40765,4.89234 8.05218,0 10.50328,-1.04343 10.50328,-3.8489 0,-2.09672 -2.80547,-6.64453 -2.80547,-10.847815 0,-1.752187 0.70875,-2.795625 1.05328,-3.848906 1.63406,0 3.26813,-0.468125 4.90219,-0.468125 0.81703,0 1.63406,0.117031 2.45109,0.468125 1.39781,0.698906 1.75219,4.203281 1.75219,8.052191 0,4.19343 -0.35438,8.39672 -0.35438,10.1489 l 0.69891,0 c 1.75219,-1.05328 3.15,-3.15 3.84891,-4.90218 -3.15,-3.49454 -0.69891,-17.846724 -3.84891,-19.598911 -1.39781,-0.698906 -2.79563,-0.698906 -4.19344,-0.698906 -2.10656,0 -3.85875,0.344531 -5.60109,0.344531 -2.10656,0 -3.50438,-1.043438 -4.55766,-5.246719 l -0.6989,0 m 19.95328,0.344531 c -0.35438,2.106563 -0.69891,3.85875 -0.69891,5.601094 0,4.557656 1.05328,5.955469 6.99891,5.955469 -0.35438,2.451094 -0.69891,4.902187 -0.69891,7.697811 0,3.15 -0.35437,7.35328 -0.6989,10.14891 l 1.04343,0 c 2.4511,-1.05328 3.15985,-1.75219 4.54782,-4.54781 l 0,-0.69891 c -0.68907,0 -1.04344,-0.35438 -1.38797,-1.05328 -0.70875,-1.04344 -0.70875,-4.54781 -0.70875,-6.998909 0,-0.698906 0.35437,-2.096718 0.35437,-3.15 0.35438,-1.053281 1.74235,-2.451093 1.74235,-5.601093 0,-1.752188 -2.79563,-2.096719 -5.24672,-2.451094 -1.39782,-0.344531 -2.79563,-1.043438 -3.49453,-2.096719 -0.35438,-0.354375 -0.69891,-1.752187 -1.05329,-2.805469 l -0.6989,0 m 115.45734,82.079374 c -0.91766,0 -1.88016,-0.175 -2.75625,-0.5239 0.69891,-6.3 0.69891,-13.99782 1.05328,-19.94344 1.39781,1.74234 2.09672,2.79562 2.79563,2.79562 0.6989,0 1.39781,-1.05328 3.50437,-2.45109 -0.6989,6.3 -1.05328,13.64344 -2.10656,19.59891 -0.69891,0.3489 -1.57281,0.5239 -2.49047,0.5239 M 79.59211,162.50493 c -0.91875,0 -1.794844,-0.175 -2.49375,-0.52391 -0.698906,-5.60109 -1.043437,-12.95437 -1.752187,-19.60875 1.752187,1.75219 2.451093,2.80547 3.15,2.80547 1.053281,0 1.407656,-1.05328 3.149999,-3.15 0.354375,6.3 0.354375,13.65328 0.698907,19.95328 -0.871719,0.34891 -1.833125,0.52391 -2.752969,0.52391 m 70.65516,-11.7261 c -2.4511,-0.35437 -4.54782,-0.6989 -7.34344,-0.6989 -2.4511,0 -5.25656,0.34453 -7.70766,0.6989 0,-5.60109 0.69891,-9.80437 2.10657,-13.2989 6.9989,0.6989 9.79453,0.6989 11.19234,2.45109 1.40766,1.39781 1.05328,4.19344 1.75219,10.84781 m 70.35328,-0.35437 c -2.4511,-0.69891 -4.90219,-0.69891 -7.69781,-0.69891 -2.4511,0 -4.90219,0.35438 -6.99891,0.69891 0,-0.34453 -0.35438,-3.84891 -0.35438,-4.54781 0,-2.09672 0.69891,-5.24672 1.75219,-8.39672 5.94563,0 9.10547,0 10.84781,1.39781 2.09672,1.75219 2.4511,4.90219 2.4511,11.54672 M 76.753829,94.423364 c -0.698906,-6.998906 -0.354375,-15.395625 -1.407656,-22.748906 2.096718,1.397812 2.805468,2.451093 3.15,2.451093 1.053281,0 1.407656,-1.397812 3.149999,-2.795625 l 0,18.9 c 0,0.698907 0.354375,2.44125 0.354375,3.848907 -1.397812,0.344531 -3.504374,0.344531 -5.246718,0.344531 M 281.14508,93.514458 c -1.44047,0 -2.46531,-0.32375 -3.49016,-0.843282 0.41453,-4.155156 0.58297,-8.803593 0.5775,-13.506718 -0.003,-3.216719 -0.0886,-6.459688 -0.23297,-9.586719 1.40766,1.752187 2.10657,2.451094 3.15,2.795625 0.69891,0 1.39782,-0.698906 2.80547,-2.096719 -0.35437,6.998906 0,16.448906 -1.05328,23.103281 -0.65406,0.09188 -1.23265,0.134532 -1.75656,0.134532 M 180.34945,205.02773 c -4.54781,0 -9.45,-1.05328 -10.84781,-3.15 -1.05328,-1.39781 -1.05328,-4.20328 -1.39781,-6.3 3.14999,2.09672 8.04234,3.49453 11.54671,3.49453 4.90219,0 8.7511,-1.04344 12.24563,-3.49453 -0.69891,2.45109 -1.04344,6.99891 -3.15,8.05219 -1.74235,1.04343 -4.89234,1.39781 -8.39672,1.39781"
         id="path481"
         style="fill:white;fill-opacity:1;fill-rule:nonzero;stroke:none" />
      <rect
         width="360"
         height="360"
         x="0"
         y="0"
         id="rect4836"
         style="fill:none;stroke:none" />
    </g>
  </g>
</svg>
